<svg width="253" height="111" viewBox="0 0 253 111" fill="none" xmlns="http://www.w3.org/2000/svg">
<path d="M123.692 71.3251C119.917 71.3251 116.928 70.3813 114.726 68.4938C112.524 66.6063 111.423 63.9179 111.423 60.4288C111.423 56.9397 112.524 54.2371 114.726 52.3209C116.957 50.4048 119.96 49.4467 123.735 49.4467C125.422 49.4467 126.995 49.6183 128.454 49.9615C129.941 50.2761 131.171 50.7337 132.143 51.3343V57.2114C130.399 55.953 128.096 55.3239 125.236 55.3239C123.406 55.3239 121.933 55.7528 120.818 56.6108C119.731 57.4402 119.188 58.7129 119.188 60.4288C119.188 62.1734 119.731 63.4603 120.818 64.2897C121.905 65.0905 123.363 65.4909 125.194 65.4909C127.968 65.4909 130.37 64.8331 132.401 63.5175V69.3518C130.227 70.6673 127.324 71.3251 123.692 71.3251ZM143.819 71.3251C141.245 71.3251 139.158 70.7102 137.556 69.4805C135.983 68.2221 135.197 66.4776 135.197 64.2468C135.197 61.9303 135.955 60.1571 137.47 58.9274C139.015 57.669 141.217 57.0398 144.077 57.0398C145.192 57.0398 146.308 57.1685 147.423 57.4259C148.538 57.6547 149.496 57.9693 150.297 58.3697V57.9407C150.297 55.7385 148.495 54.6375 144.892 54.6375C142.375 54.6375 140.073 55.1237 137.985 56.096V50.9053C138.9 50.4763 140.101 50.1331 141.589 49.8757C143.076 49.5897 144.62 49.4467 146.222 49.4467C150.054 49.4467 152.943 50.2189 154.887 51.7633C156.861 53.279 157.847 55.4097 157.847 58.1552V70.6816H150.769V68.9228C149.997 69.6664 149.024 70.2527 147.852 70.6816C146.679 71.1106 145.335 71.3251 143.819 71.3251ZM146.05 66.692C146.937 66.692 147.766 66.5205 148.538 66.1773C149.31 65.8055 149.897 65.3336 150.297 64.7616V62.9598C149.067 62.1305 147.666 61.7158 146.093 61.7158C145.092 61.7158 144.32 61.9303 143.776 62.3593C143.233 62.7883 142.961 63.4174 142.961 64.2468C142.961 65.019 143.219 65.6196 143.734 66.0486C144.277 66.4776 145.049 66.692 146.05 66.692ZM162.342 50.0902H169.635V52.6641C170.436 51.749 171.565 51.0483 173.024 50.5621C174.482 50.0473 176.098 49.7899 177.871 49.7899V55.5812C175.984 55.5812 174.311 55.8529 172.852 56.3963C171.422 56.9397 170.436 57.7548 169.892 58.8416V70.6816H162.342V50.0902ZM192.976 71.3251C188.944 71.3251 185.769 70.3813 183.453 68.4938C181.165 66.6063 180.021 63.9322 180.021 60.4717C180.021 57.0684 181.036 54.3801 183.067 52.4067C185.126 50.4334 188.086 49.4467 191.947 49.4467C194.406 49.4467 196.508 49.9186 198.253 50.8624C200.026 51.7776 201.356 53.0502 202.243 54.6804C203.158 56.2819 203.615 58.098 203.615 60.1285V62.9169H187.185C187.471 64.0609 188.186 64.8903 189.33 65.4051C190.474 65.9199 192.033 66.1773 194.006 66.1773C195.35 66.1773 196.723 66.0629 198.124 65.8341C199.554 65.6053 200.784 65.2907 201.814 64.8903V69.8666C200.755 70.2956 199.426 70.6387 197.824 70.8961C196.251 71.1821 194.635 71.3251 192.976 71.3251ZM196.494 58.1981C196.38 57.0827 195.922 56.2104 195.121 55.5812C194.321 54.9521 193.22 54.6375 191.818 54.6375C190.445 54.6375 189.359 54.9664 188.558 55.6241C187.757 56.2533 187.299 57.1113 187.185 58.1981H196.494ZM219.557 71.3251C215.524 71.3251 212.35 70.3813 210.033 68.4938C207.745 66.6063 206.602 63.9322 206.602 60.4717C206.602 57.0684 207.617 54.3801 209.647 52.4067C211.706 50.4334 214.666 49.4467 218.527 49.4467C220.987 49.4467 223.089 49.9186 224.834 50.8624C226.607 51.7776 227.937 53.0502 228.823 54.6804C229.738 56.2819 230.196 58.098 230.196 60.1285V62.9169H213.766C214.052 64.0609 214.767 64.8903 215.911 65.4051C217.055 65.9199 218.613 66.1773 220.587 66.1773C221.931 66.1773 223.303 66.0629 224.705 65.8341C226.135 65.6053 227.365 65.2907 228.394 64.8903V69.8666C227.336 70.2956 226.006 70.6387 224.405 70.8961C222.832 71.1821 221.216 71.3251 219.557 71.3251ZM223.075 58.1981C222.96 57.0827 222.503 56.2104 221.702 55.5812C220.901 54.9521 219.8 54.6375 218.399 54.6375C217.026 54.6375 215.939 54.9664 215.138 55.6241C214.338 56.2533 213.88 57.1113 213.766 58.1981H223.075ZM234.04 50.0902H241.333V52.6641C242.134 51.749 243.263 51.0483 244.722 50.5621C246.18 50.0473 247.796 49.7899 249.569 49.7899V55.5812C247.682 55.5812 246.009 55.8529 244.55 56.3963C243.12 56.9397 242.134 57.7548 241.59 58.8416V70.6816H234.04V50.0902Z" fill="#F77354"/>
<circle cx="55.1755" cy="55.1755" r="55.1755" fill="black"/>
<circle cx="34.9899" cy="64.5959" r="5.38298" fill="#F77354"/>
<path d="M55.0761 71.8661C52.9312 71.8661 51.0293 71.4229 49.3706 70.5363C47.7118 69.6211 46.4249 68.3484 45.5097 66.7183C44.5945 65.0595 44.1369 63.1434 44.1369 60.9698C44.1369 58.8249 44.5945 56.923 45.5097 55.2643C46.4249 53.5769 47.6975 52.2757 49.3277 51.3605C50.9864 50.4453 52.9026 49.9877 55.0761 49.9877C56.5061 49.9877 57.8217 50.1879 59.0228 50.5883C60.224 50.9887 61.2536 51.5607 62.1115 52.3043V39.5204H69.6617V71.2227H62.3689V69.1635C60.4528 70.9653 58.0218 71.8661 55.0761 71.8661ZM57.0495 66.0319C58.1934 66.0319 59.223 65.7459 60.1382 65.1739C61.0534 64.5733 61.7112 63.7726 62.1115 62.7716V59.1252C61.7112 58.1242 61.0534 57.3377 60.1382 56.7657C59.223 56.1652 58.1934 55.8649 57.0495 55.8649C55.5051 55.8649 54.2611 56.3225 53.3173 57.2376C52.3735 58.1528 51.9016 59.3969 51.9016 60.9698C51.9016 62.5428 52.3735 63.7869 53.3173 64.702C54.2611 65.5886 55.5051 66.0319 57.0495 66.0319ZM78.4148 47.8857C77.2708 47.8857 76.3127 47.5139 75.5406 46.7703C74.7684 46.0267 74.3823 45.083 74.3823 43.939C74.3823 42.8236 74.7684 41.8941 75.5406 41.1506C76.3127 40.3784 77.2708 39.9923 78.4148 39.9923C79.5301 39.9923 80.4739 40.3784 81.2461 41.1506C82.0469 41.8941 82.4473 42.8236 82.4473 43.939C82.4473 45.0544 82.0469 45.9981 81.2461 46.7703C80.4739 47.5139 79.5301 47.8857 78.4148 47.8857ZM74.6397 50.6312H82.1899V71.2227H74.6397V50.6312ZM96.0599 71.8661C94.4012 71.8661 92.6709 71.6945 90.8692 71.3514C89.0674 71.0368 87.6375 70.5792 86.5793 69.9786V64.4446C87.7519 65.131 89.1532 65.703 90.7834 66.1606C92.4421 66.5896 93.9579 66.8041 95.3307 66.8041C96.3316 66.8041 97.0609 66.7326 97.5185 66.5896C97.9761 66.4466 98.2049 66.1606 98.2049 65.7316C98.2049 65.3884 98.0476 65.1167 97.733 64.9165C97.447 64.6877 96.9036 64.4589 96.1028 64.2301C95.3307 63.9728 94.4298 63.7011 93.4002 63.4151C91.6557 62.9003 90.2829 62.3712 89.2819 61.8278C88.2809 61.2844 87.5374 60.598 87.0512 59.7687C86.565 58.9393 86.3219 57.8954 86.3219 56.637C86.3219 54.4063 87.1942 52.7476 88.9387 51.6608C90.7119 50.5454 93.1285 49.9877 96.1886 49.9877C97.6758 49.9877 99.2345 50.145 100.865 50.4596C102.523 50.7742 103.767 51.1889 104.597 51.7037V57.1518C103.739 56.5799 102.595 56.108 101.165 55.7362C99.7635 55.3644 98.448 55.1785 97.2182 55.1785C96.2458 55.1785 95.488 55.2786 94.9446 55.4788C94.4012 55.6504 94.1295 55.965 94.1295 56.4226C94.1295 56.8515 94.4012 57.1804 94.9446 57.4092C95.488 57.638 96.4603 57.924 97.8617 58.2672C98.7769 58.496 99.163 58.5961 99.02 58.5675C100.85 59.0537 102.266 59.5971 103.267 60.1977C104.268 60.7982 104.969 61.5132 105.369 62.3426C105.798 63.1434 106.012 64.1729 106.012 65.4313C106.012 67.4047 105.154 68.9776 103.439 70.1502C101.751 71.2942 99.2917 71.8661 96.0599 71.8661Z" fill="#F77354"/>
</svg>
